<mxfile host="app.diagrams.net" modified="2023-11-11T13:36:34.448Z" agent="Mozilla/5.0 (Windows NT 10.0; Win64; x64) AppleWebKit/537.36 (KHTML, like Gecko) Chrome/119.0.0.0 Safari/537.36 Edg/119.0.0.0" version="22.1.0" etag="zbx1u9Vsqn5QgaAmApUH" type="github">
  <diagram name="Page-1" id="pVPk4Aic2EXj-g2b3X4H">
    <mxGraphModel>
      <root>
        <mxCell id="0" />
        <mxCell id="1" parent="0" />
      </root>
    </mxGraphModel>
  </diagram>
</mxfile>
